<svg width="93" height="115" viewBox="0 0 93 115" fill="none" xmlns="http://www.w3.org/2000/svg">
<path d="M26.3829 11.2458L78.6399 70.5003L32.9435 89.9786L26.3829 11.2458Z" fill="#DDEEF8"/>
<path d="M48.371 64.379L48.2105 62.454L49.4883 63.9028L48.371 64.379Z" stroke="black" stroke-opacity="0.1" stroke-width="35"/>
<mask id="path-3-inside-1_2_7" fill="white">
<path d="M46.7724 13.0098L78.451 75.5225L37.4463 82.4677L46.7724 13.0098Z"/>
</mask>
<path d="M46.7724 13.0098L78.451 75.5225L37.4463 82.4677L46.7724 13.0098Z" fill="#DDEEF8"/>
<path d="M46.7724 13.0098L317.942 -124.406L-124.322 -997.146L-254.524 -27.4451L46.7724 13.0098ZM78.451 75.5225L129.218 375.254L536.213 306.319L349.62 -61.8935L78.451 75.5225ZM37.4463 82.4677L-263.85 42.0128L-318.782 451.133L88.2131 382.199L37.4463 82.4677ZM-224.397 150.426L-192.718 212.939L349.62 -61.8935L317.942 -124.406L-224.397 150.426ZM27.6841 -224.209L-13.3205 -217.263L88.2131 382.199L129.218 375.254L27.6841 -224.209ZM338.742 122.923L348.069 53.4647L-254.524 -27.4451L-263.85 42.0128L338.742 122.923Z" fill="black" fill-opacity="0.05" mask="url(#path-3-inside-1_2_7)"/>
<mask id="path-5-inside-2_2_7" fill="white">
<path d="M74.1347 39.3327L82.9169 79.1658L51.692 73.3934L74.1347 39.3327Z"/>
</mask>
<path d="M74.1347 39.3327L82.9169 79.1658L51.692 73.3934L74.1347 39.3327Z" fill="#DDEEF8"/>
<path d="M74.1347 39.3327L733.304 -105.998L389.378 -1665.92L-489.511 -332.055L74.1347 39.3327ZM82.9169 79.1658L-39.7885 742.919L961.271 927.981L742.086 -66.1651L82.9169 79.1658ZM51.692 73.3934L-511.953 -297.994L-1072.07 552.085L-71.0134 737.147L51.692 73.3934ZM-585.034 184.664L-576.252 224.497L742.086 -66.1651L733.304 -105.998L-585.034 184.664ZM205.622 -584.587L174.397 -590.36L-71.0134 737.147L-39.7885 742.919L205.622 -584.587ZM615.337 444.781L637.78 410.721L-489.511 -332.055L-511.953 -297.994L615.337 444.781Z" fill="black" fill-opacity="0.02" mask="url(#path-5-inside-2_2_7)"/>
</svg>
